# xmcd
#
# Track frame offsets:
#	150
#	12288
#	29047
#	44647
#	58370
#	70649
#	77358
#	93261
#	104092
#	121704
#	136393
#	151908
#	167884
#
# Disc length: 2362 seconds
#
# Revision: 1
# Processed by: cddbd v1.5.2PL0 Copyright (c) Steve Scherf et al.
# Submitted via: audiograbber 1.83.01
#
DISCID=ac09380d
DTITLE=American Folklore - ...And The Mountain View
DYEAR=1900
DGENRE=Country
TTITLE0=She Godzilla
TTITLE1=West Memphis
TTITLE2=Darkness
TTITLE3=Satellite
TTITLE4=Boom Boom
TTITLE5=Nothing Man
TTITLE6=Hangman
TTITLE7=They Mix
TTITLE8=Grain Of Sand
TTITLE9=Werewolf Child
TTITLE10=Higher But Hurting
TTITLE11=Hows The Weather
TTITLE12=Goodbye Lucifer
EXTD=
EXTT0=
EXTT1=
EXTT2=
EXTT3=
EXTT4=
EXTT5=
EXTT6=
EXTT7=
EXTT8=
EXTT9=
EXTT10=
EXTT11=
EXTT12=
PLAYORDER=
